# Blender 4.0.2
# www.blender.org
mtllib Tisch.mtl
o Beine
v 0.706961 0.559717 0.258564
v 0.706961 0.591663 0.258564
v 0.706961 0.559717 -0.251029
v 0.706961 0.591663 -0.251029
v 0.727002 0.559717 0.258564
v 0.727002 0.591663 0.258564
v 0.727002 0.559717 -0.251029
v 0.727002 0.591663 -0.251029
v 0.706961 0.559717 -0.077234
v 0.706961 0.591663 -0.077234
v 0.727002 0.559717 -0.077234
v 0.727002 0.591663 -0.077234
v 0.706961 0.591663 -0.170540
v 0.727002 0.559717 -0.170540
v 0.706961 0.559717 -0.170540
v 0.727002 0.591663 -0.170540
v 0.706961 0.040898 -0.077234
v 0.727002 0.040898 -0.077234
v 0.727002 0.040898 -0.170540
v 0.706961 0.040898 -0.170540
v 0.706961 0.003781 -0.077234
v 0.727002 0.003781 -0.077234
v 0.727002 0.003781 -0.170540
v 0.706961 0.003781 -0.170540
v 0.727002 0.040898 -0.247187
v 0.706961 0.040898 -0.247187
v 0.727002 0.003781 -0.247187
v 0.706961 0.003781 -0.247187
v 0.706961 0.040898 0.245294
v 0.727002 0.040898 0.245294
v 0.706961 0.003781 0.245294
v 0.727002 0.003781 0.245294
v -0.718877 0.559717 0.258564
v -0.718877 0.591663 0.258564
v -0.718877 0.559717 -0.251029
v -0.718877 0.591663 -0.251029
v -0.698836 0.559717 0.258564
v -0.698836 0.591663 0.258564
v -0.698836 0.559717 -0.251029
v -0.698836 0.591663 -0.251029
v -0.718877 0.559717 -0.077234
v -0.718877 0.591663 -0.077234
v -0.698836 0.559717 -0.077234
v -0.698836 0.591663 -0.077234
v -0.718877 0.591663 -0.170540
v -0.698836 0.559717 -0.170540
v -0.718877 0.559717 -0.170540
v -0.698836 0.591663 -0.170540
v -0.718877 0.040898 -0.077234
v -0.698836 0.040898 -0.077234
v -0.698836 0.040898 -0.170540
v -0.718877 0.040898 -0.170540
v -0.718877 0.003781 -0.077234
v -0.698836 0.003781 -0.077234
v -0.698836 0.003781 -0.170540
v -0.718877 0.003781 -0.170540
v -0.698836 0.040898 -0.247187
v -0.718877 0.040898 -0.247187
v -0.698836 0.003781 -0.247187
v -0.718877 0.003781 -0.247187
v -0.718877 0.040898 0.245294
v -0.698836 0.040898 0.245294
v -0.718877 0.003781 0.245294
v -0.698836 0.003781 0.245294
vn -1.0000 -0.0000 -0.0000
vn -0.0000 -0.0000 -1.0000
vn 1.0000 -0.0000 -0.0000
vn -0.0000 -0.0000 1.0000
vn -0.0000 -1.0000 -0.0000
vn -0.0000 1.0000 -0.0000
vt 0.375000 0.187500
vt 0.625000 0.187500
vt 0.625000 0.250000
vt 0.375000 0.250000
vt 0.625000 0.500000
vt 0.375000 0.500000
vt 0.375000 0.625000
vt 0.625000 0.625000
vt 0.625000 0.750000
vt 0.375000 0.750000
vt 0.625000 1.000000
vt 0.375000 1.000000
vt 0.125000 0.625000
vt 0.125000 0.750000
vt 0.875000 0.625000
vt 0.875000 0.750000
vt 0.625000 0.562500
vt 0.875000 0.562500
vt 0.125000 0.562500
vt 0.375000 0.562500
vt 0.375000 0.000000
vt 0.625000 0.000000
vt 0.625000 0.125000
vt 0.375000 0.125000
vt 0.125000 0.500000
vt 0.875000 0.500000
s 0
f 15/1/1 13/2/1 4/3/1 3/4/1
f 3/4/2 4/3/2 8/5/2 7/6/2
f 11/7/3 12/8/3 6/9/3 5/10/3
f 5/10/4 6/9/4 2/11/4 1/12/4
f 9/13/5 11/7/5 5/10/5 1/14/5
f 12/8/6 10/15/6 2/16/6 6/9/6
f 16/17/6 13/18/6 10/15/6 12/8/6
f 15/19/2 14/20/2 19/20/2 20/19/2
f 14/20/3 16/17/3 12/8/3 11/7/3
f 1/21/1 2/22/1 10/23/1 9/24/1
f 7/6/3 8/5/3 16/17/3 14/20/3
f 3/25/5 7/6/5 14/20/5 15/19/5
f 8/5/6 4/26/6 13/18/6 16/17/6
f 9/24/1 10/23/1 13/2/1 15/1/1
f 22/7/3 18/7/3 30/7/3 32/7/3
f 9/24/1 15/1/1 20/1/1 17/24/1
f 14/20/3 11/7/3 18/7/3 19/20/3
f 11/7/4 9/13/4 17/13/4 18/7/4
f 24/19/5 23/20/5 22/7/5 21/13/5
f 19/20/3 18/7/3 22/7/3 23/20/3
f 17/24/1 20/1/1 24/1/1 21/24/1
f 24/1/1 20/1/1 26/1/1 28/1/1
f 26/19/2 25/20/2 27/20/2 28/19/2
f 23/20/5 24/19/5 28/19/5 27/20/5
f 20/19/6 19/20/6 25/20/6 26/19/6
f 19/20/3 23/20/3 27/20/3 25/20/3
f 30/7/4 29/13/4 31/13/4 32/7/4
f 21/13/5 22/7/5 32/7/5 31/13/5
f 18/7/6 17/13/6 29/13/6 30/7/6
f 17/24/1 21/24/1 31/24/1 29/24/1
f 47/1/1 45/2/1 36/3/1 35/4/1
f 35/4/2 36/3/2 40/5/2 39/6/2
f 43/7/3 44/8/3 38/9/3 37/10/3
f 37/10/4 38/9/4 34/11/4 33/12/4
f 41/13/5 43/7/5 37/10/5 33/14/5
f 44/8/6 42/15/6 34/16/6 38/9/6
f 48/17/6 45/18/6 42/15/6 44/8/6
f 47/19/2 46/20/2 51/20/2 52/19/2
f 46/20/3 48/17/3 44/8/3 43/7/3
f 33/21/1 34/22/1 42/23/1 41/24/1
f 39/6/3 40/5/3 48/17/3 46/20/3
f 35/25/5 39/6/5 46/20/5 47/19/5
f 40/5/6 36/26/6 45/18/6 48/17/6
f 41/24/1 42/23/1 45/2/1 47/1/1
f 54/7/3 50/7/3 62/7/3 64/7/3
f 41/24/1 47/1/1 52/1/1 49/24/1
f 46/20/3 43/7/3 50/7/3 51/20/3
f 43/7/4 41/13/4 49/13/4 50/7/4
f 56/19/5 55/20/5 54/7/5 53/13/5
f 51/20/3 50/7/3 54/7/3 55/20/3
f 49/24/1 52/1/1 56/1/1 53/24/1
f 56/1/1 52/1/1 58/1/1 60/1/1
f 58/19/2 57/20/2 59/20/2 60/19/2
f 55/20/5 56/19/5 60/19/5 59/20/5
f 52/19/6 51/20/6 57/20/6 58/19/6
f 51/20/3 55/20/3 59/20/3 57/20/3
f 62/7/4 61/13/4 63/13/4 64/7/4
f 53/13/5 54/7/5 64/7/5 63/13/5
f 50/7/6 49/13/6 61/13/6 62/7/6
f 49/24/1 53/24/1 63/24/1 61/24/1
o Platte
v -0.738363 0.581129 0.289902
v -0.738363 0.609974 0.289902
v -0.738363 0.581129 -0.278399
v -0.738363 0.609974 -0.278399
v 0.753295 0.581129 0.289902
v 0.753295 0.609974 0.289902
v 0.753295 0.581129 -0.278399
v 0.753295 0.609974 -0.278399
vn -1.0000 -0.0000 -0.0000
vn -0.0000 -0.0000 -1.0000
vn 1.0000 -0.0000 -0.0000
vn -0.0000 -0.0000 1.0000
vn -0.0000 -1.0000 -0.0000
vn -0.0000 1.0000 -0.0000
vt 0.375000 0.000000
vt 0.625000 0.000000
vt 0.625000 0.250000
vt 0.375000 0.250000
vt 0.625000 0.500000
vt 0.375000 0.500000
vt 0.625000 0.750000
vt 0.375000 0.750000
vt 0.625000 1.000000
vt 0.375000 1.000000
vt 0.125000 0.500000
vt 0.125000 0.750000
vt 0.875000 0.500000
vt 0.875000 0.750000
s 0
f 65/27/7 66/28/7 68/29/7 67/30/7
f 67/30/8 68/29/8 72/31/8 71/32/8
f 71/32/9 72/31/9 70/33/9 69/34/9
f 69/34/10 70/33/10 66/35/10 65/36/10
f 67/37/11 71/32/11 69/34/11 65/38/11
f 72/31/12 68/39/12 66/40/12 70/33/12
